<svg width="880" height="443" viewBox="0 0 880 443" fill="none" xmlns="http://www.w3.org/2000/svg">
<path d="M313.245 215.8C299.695 224.639 285.158 229.058 269.636 229.058C261.418 229.058 253.986 227.725 247.375 225.059C240.746 222.393 235.158 218.631 230.592 213.755C226.027 208.879 222.484 203.017 219.982 196.169C217.462 189.321 216.221 181.779 216.221 173.561C216.221 165.946 217.444 158.952 219.873 152.56C222.301 146.168 225.735 140.671 230.154 136.106C234.573 131.541 239.869 127.998 246.024 125.496C252.196 122.976 259.081 121.734 266.696 121.734C274.311 121.734 280.629 122.94 286.565 125.387C292.5 127.815 297.595 131.394 301.868 136.106C306.123 140.836 309.41 146.534 311.693 153.235C313.976 159.938 315.126 167.48 315.126 175.844V178.82H237.934C238.536 188.718 241.732 196.37 247.521 201.757C253.31 207.162 261.071 209.865 270.823 209.865C283.917 209.865 298.069 205.008 313.3 195.256V215.8H313.245ZM292.481 164.193C291.715 156.596 288.975 150.533 284.264 146.04C279.534 141.548 273.599 139.302 266.44 139.302C250.461 139.302 240.947 147.611 237.897 164.193H292.481Z" fill="#8EC63F"/>
<path d="M352.98 123.771H373.762V129.487C381.377 124.155 390.198 121.488 400.26 121.488C407.565 121.488 414.34 122.785 420.585 125.378C426.83 127.953 432.145 131.624 436.564 136.335C440.983 141.047 444.435 146.726 446.955 153.337C449.475 159.966 450.717 167.234 450.717 175.16C450.717 183.085 449.457 190.536 446.955 197.073C444.435 203.63 440.983 209.254 436.564 213.966C432.145 218.696 426.812 222.348 420.585 224.941C414.34 227.516 407.565 228.813 400.26 228.813C395.074 228.813 390.362 228.21 386.107 226.986C381.834 225.763 377.725 223.79 373.781 221.051V278.594H352.998V123.771H352.98ZM373.762 204.159C380.318 208.871 387.386 211.226 395.001 211.226C405.501 211.226 413.755 208.067 419.782 201.749C425.79 195.449 428.803 186.573 428.803 175.16C428.803 163.746 425.79 154.907 419.782 148.662C413.755 142.416 405.501 139.293 395.001 139.293C387.386 139.293 380.318 141.668 373.762 146.379V204.159Z" fill="#8EC63F"/>
<path d="M580.187 219.234C572.885 225.479 565.193 228.602 557.122 228.602C553.16 228.602 550.185 227.798 548.211 226.191C546.237 224.602 545.089 221.973 544.778 218.32C539.756 221.827 534.918 224.42 530.28 226.081C525.642 227.762 520.561 228.602 515.087 228.602C505.499 228.602 498.192 226.356 493.169 221.863C488.147 217.371 485.646 211.326 485.646 203.711C485.646 189.248 496.986 178.218 519.667 170.584L544.102 162.367C544.248 161.618 544.321 160.887 544.321 160.193V158.038C544.321 151.793 542.79 147.337 539.756 144.671C536.707 142.005 531.758 140.671 524.908 140.671C513.186 140.671 501.152 145.474 488.823 155.062V134.736C494.156 130.336 500.093 127.048 506.646 124.93C513.186 122.793 520.124 121.734 527.431 121.734C541.127 121.734 550.875 124.692 556.665 130.628C562.456 136.563 565.339 145.931 565.339 158.714V202.341C565.339 205.683 565.597 208.203 566.146 209.865C566.671 211.545 567.77 212.386 569.447 212.386C571.129 212.386 572.792 211.856 574.47 210.778C576.152 209.719 578.053 208.35 580.187 206.669V219.234ZM544.122 175.624C531.792 179.423 522.608 183.112 516.599 186.691C510.575 190.27 507.58 194.799 507.58 200.278C507.58 204.551 508.946 207.82 511.688 210.102C514.425 212.386 518.227 213.517 523.099 213.517C530.406 213.517 537.417 210.943 544.102 205.756V175.624H544.122Z" fill="#8EC63F"/>
<path d="M610.803 123.791H631.344V146.18C636.512 137.944 641.389 131.863 645.954 127.9C650.519 123.937 655.78 121.965 661.716 121.965C668.873 121.965 676.705 125.307 685.238 132.009L674.041 150.289C670.847 147.55 667.721 145.486 664.672 144.116C661.624 142.746 658.357 142.053 654.846 142.053C649.518 142.053 644.714 144.317 640.46 148.791C636.187 153.284 633.153 159.876 631.329 168.55V226.787H610.783V123.791H610.803Z" fill="#8EC63F"/>
<path d="M783.446 221.058C779.484 223.797 775.336 225.788 770.99 226.993C766.643 228.217 761.898 228.819 756.73 228.819C749.423 228.819 742.65 227.523 736.402 224.948C730.16 222.355 724.826 218.703 720.426 213.972C716.007 209.261 712.536 203.637 710.032 197.08C707.513 190.543 706.273 183.238 706.273 175.166C706.273 167.095 707.533 159.972 710.032 153.344C712.536 146.733 716.007 141.053 720.426 136.342C724.846 131.612 730.16 127.96 736.402 125.385C742.65 122.792 749.423 121.495 756.73 121.495C766.92 121.495 775.832 124.161 783.446 129.494V70.8008H804.007V226.774H783.446V221.058ZM783.446 145.929C776.907 141.218 769.75 138.844 761.986 138.844C751.489 138.844 743.214 142.021 737.205 148.321C731.181 154.64 728.186 163.515 728.186 174.929C728.186 186.342 731.181 195.218 737.205 201.536C743.214 207.855 751.469 211.014 761.986 211.014C769.75 211.014 776.907 208.658 783.446 203.929V145.929Z" fill="#8EC63F"/>
<path d="M156.391 125.396V131.094C152.428 128.354 148.283 126.382 143.936 125.159C139.59 123.953 134.842 123.332 129.674 123.332C122.369 123.332 115.594 124.629 109.349 127.222C103.103 129.815 97.7706 133.468 93.3697 138.179C88.9502 142.89 85.4803 148.534 82.9784 155.071C80.4585 161.627 79.1983 168.932 79.1983 177.003C79.1983 185.075 80.4585 192.179 82.9784 198.808C85.4803 205.437 88.9502 211.098 93.3697 215.828C97.7886 220.539 103.121 224.192 109.349 226.785C115.594 229.378 122.369 230.675 129.674 230.675C139.864 230.675 148.776 228.008 156.391 222.676V232.245C156.391 249.703 140.649 258.159 128.724 258.159C110.901 258.159 107.394 252.461 102.701 245.868H77.3906C77.3906 245.868 88.238 274.375 128.432 274.375C168.626 274.375 176.935 240.207 176.935 230.455V125.396H156.391ZM134.933 213.308C124.433 213.308 116.178 210.149 110.152 203.83C104.144 197.511 101.131 188.654 101.131 177.223C101.131 165.791 104.144 156.934 110.152 150.633C116.16 144.315 124.414 141.137 134.933 141.137C142.694 141.137 149.853 143.511 156.409 148.223V206.222C149.871 210.952 142.713 213.308 134.933 213.308Z" fill="#8EC63F"/>
<path d="M819.051 341.627H61.8669C28.7583 341.627 1.82227 314.691 1.82227 281.564V62.5509C1.82227 29.4243 28.7583 2.48828 61.8669 2.48828H819.051C852.16 2.48828 879.095 29.4243 879.095 62.5329V281.564C879.095 314.672 852.16 341.627 819.051 341.627ZM61.8669 23.0327C40.0988 23.0327 22.3667 40.7648 22.3667 62.5329V281.564C22.3667 303.35 40.0988 321.082 61.8669 321.082H819.051C840.837 321.082 858.553 303.35 858.553 281.564V62.5329C858.553 40.7466 840.822 23.0327 819.051 23.0327H61.8669Z" fill="#8EC63F"/>
<path d="M22.4199 394.344H28.6654V413.664H54.0127V394.344H60.2583V439.249H54.0127V419.728H28.6654V439.249H22.4199V394.344Z" fill="white"/>
<path d="M85.9132 416.769L68.9297 394.344H76.399L89.2003 411.364L102.312 394.344H109.909L92.2866 417.098V439.249H85.9132V416.769Z" fill="white"/>
<path d="M131.66 414.194C134.618 414.194 136.809 413.664 138.215 412.587C139.622 411.51 140.334 409.702 140.334 407.164C140.334 404.625 139.622 402.817 138.215 401.74C136.791 400.662 134.618 400.133 131.66 400.133H124.848V414.194H131.66ZM118.602 394.344H132.299C136.974 394.344 140.571 395.476 143.11 397.759C145.648 400.041 146.908 403.164 146.908 407.164C146.908 411.162 145.648 414.267 143.11 416.531C140.571 418.796 136.974 419.928 132.299 419.928H124.83V439.249H118.584V394.344H118.602Z" fill="white"/>
<path d="M163.488 416.832C163.488 419.169 163.908 421.361 164.749 423.406C165.588 425.469 166.793 427.314 168.382 428.939C169.935 430.565 171.724 431.806 173.788 432.646C175.852 433.505 177.988 433.943 180.216 433.943C184.891 433.943 188.854 432.263 192.123 428.939C193.711 427.314 194.916 425.469 195.757 423.406C196.597 421.361 197.017 419.169 197.017 416.832C197.017 414.494 196.597 412.339 195.757 410.294C194.916 408.249 193.693 406.404 192.049 404.743C190.461 403.062 188.671 401.802 186.644 400.962C184.636 400.104 182.48 399.666 180.216 399.666C177.951 399.666 175.87 400.104 173.843 400.981C171.834 401.857 170.008 403.117 168.382 404.743C166.793 406.313 165.588 408.139 164.749 410.221C163.908 412.303 163.488 414.513 163.488 416.832ZM156.805 416.649C156.805 413.617 157.407 410.696 158.612 407.902C159.818 405.089 161.498 402.587 163.689 400.396C165.954 398.168 168.51 396.47 171.304 395.338C174.116 394.187 177.075 393.621 180.216 393.621C183.357 393.621 186.407 394.187 189.255 395.338C192.104 396.47 194.624 398.168 196.816 400.396C201.4 404.961 203.7 410.495 203.7 417.032C203.7 420.064 203.116 422.967 201.966 425.78C200.815 428.592 199.117 431.094 196.889 433.285C192.25 437.796 186.699 440.061 180.234 440.061C177.111 440.061 174.116 439.476 171.268 438.308C168.419 437.139 165.899 435.477 163.708 433.285C161.443 431.039 159.726 428.519 158.557 425.689C157.407 422.858 156.823 419.845 156.823 416.649H156.805Z" fill="white"/>
<path d="M228.339 400.187H212.195V394.344H250.728V400.187H234.584V439.249H228.339V400.187Z" fill="white"/>
<path d="M261.592 394.344H288.035V400.059H267.837V413.664H287.45V419.453H267.837V433.46H288.674V439.249H261.592V394.344Z" fill="white"/>
<path d="M314.152 378.828H317.493L323.154 386.644L328.761 378.828H332.103L325.93 390.004H320.324L314.152 378.828ZM339.754 435.841C334.532 438.654 329.254 440.06 323.922 440.06C318.899 440.06 314.352 438.708 310.28 436.042C306.975 433.85 304.418 431.056 302.629 427.696C300.82 424.318 299.926 420.629 299.926 416.648C299.926 413.617 300.528 410.695 301.733 407.864C302.939 405.034 304.619 402.55 306.81 400.395C311.485 395.885 317.347 393.62 324.378 393.62C327.428 393.62 330.167 393.986 332.614 394.716C335.061 395.428 337.307 396.268 339.371 397.236V404.212C336.668 402.715 334.112 401.582 331.683 400.815C329.254 400.048 326.825 399.665 324.378 399.665C321.767 399.665 319.356 400.121 317.165 401.016C314.973 401.911 313.111 403.135 311.54 404.669C309.969 406.202 308.764 408.01 307.906 410.092C307.047 412.174 306.627 414.42 306.627 416.831C306.627 419.241 307.047 421.487 307.906 423.569C308.764 425.651 309.969 427.477 311.503 429.011C313.056 430.545 314.882 431.751 317 432.627C319.119 433.504 321.456 433.942 323.976 433.942C329.071 433.942 334.33 432.152 339.736 428.609V435.841H339.754Z" fill="white"/>
<path d="M352.686 394.344H358.164L387.109 429.187V394.344H393.355V439.249H387.748L358.931 404.333V439.249H352.686V394.344Z" fill="white"/>
<path d="M414.117 378.828H419.705L410.885 390.004H407.543L414.099 378.828H414.117ZM408.657 394.351H414.957V439.256H408.657V394.351Z" fill="white"/>
<path d="M449.436 427.29C451.372 429.519 453.216 431.18 455.006 432.258C456.778 433.335 458.768 433.865 460.959 433.865C463.151 433.865 464.867 433.354 466.109 432.313C467.351 431.29 467.972 429.884 467.972 428.076C467.972 427.163 467.807 426.341 467.497 425.611C467.168 424.88 466.712 424.205 466.073 423.547C465.452 422.889 464.685 422.232 463.79 421.593C462.895 420.972 461.836 420.26 460.631 419.457C458.786 418.233 457.161 417.119 455.737 416.114C454.312 415.11 453.143 414.088 452.194 413.047C451.244 412.024 450.55 410.91 450.076 409.705C449.601 408.499 449.363 407.075 449.363 405.449C449.363 403.824 449.673 402.162 450.294 400.683C450.915 399.222 451.792 397.962 452.924 396.903C454.056 395.862 455.426 395.022 457.051 394.401C458.658 393.798 460.43 393.488 462.365 393.488C465.707 393.488 469.031 394.511 472.337 396.575V403.879C470.529 402.382 468.812 401.249 467.186 400.483C465.561 399.715 463.863 399.332 462.11 399.332C460.046 399.332 458.421 399.843 457.216 400.848C456.01 401.852 455.408 403.13 455.408 404.664C455.408 405.541 455.609 406.345 456.01 407.075C456.412 407.787 456.996 408.499 457.745 409.175C458.494 409.851 459.407 410.545 460.484 411.239C461.562 411.951 462.749 412.718 464.082 413.54C465.671 414.544 467.114 415.53 468.392 416.48C469.67 417.411 470.748 418.452 471.606 419.566C472.464 420.68 473.122 421.922 473.596 423.31C474.071 424.698 474.309 426.323 474.309 428.204C474.309 429.884 473.998 431.436 473.378 432.879C472.756 434.321 471.88 435.581 470.748 436.622C469.615 437.682 468.246 438.521 466.639 439.124C465.032 439.745 463.26 440.056 461.324 440.056C459.005 440.056 456.905 439.727 454.988 439.069C453.088 438.394 451.226 437.298 449.418 435.764V427.29H449.436Z" fill="white"/>
<path d="M500.126 414.194C503.087 414.194 505.275 413.664 506.685 412.587C508.11 411.51 508.8 409.702 508.8 407.164C508.8 404.625 508.09 402.817 506.685 401.74C505.275 400.662 503.087 400.133 500.126 400.133H493.315V414.194H500.126ZM487.067 394.344H500.768C505.44 394.344 509.038 395.476 511.576 397.759C514.114 400.041 515.373 403.164 515.373 407.164C515.373 411.162 514.114 414.267 511.576 416.531C509.038 418.796 505.44 419.928 500.768 419.928H493.295V439.249H487.053V394.344H487.067Z" fill="white"/>
<path d="M527.666 394.344H554.09V400.059H533.894V413.664H553.526V419.453H533.894V433.46H554.752V439.249H527.666V394.344Z" fill="white"/>
<path d="M605.829 435.842C600.607 438.654 595.327 440.061 590.013 440.061C584.995 440.061 580.445 438.709 576.375 436.043C573.069 433.852 570.512 431.058 568.723 427.698C566.914 424.319 566.02 420.63 566.02 416.649C566.02 413.617 566.622 410.696 567.828 407.865C569.034 405.035 570.711 402.551 572.904 400.396C577.581 395.885 583.44 393.621 590.47 393.621C593.523 393.621 596.26 393.986 598.706 394.717C601.156 395.429 603.403 396.269 605.464 397.237V404.213C602.761 402.715 600.203 401.583 597.777 400.816C595.346 400.049 592.92 399.666 590.47 399.666C587.859 399.666 585.448 400.122 583.26 401.017C581.067 401.912 579.205 403.135 577.635 404.669C576.064 406.203 574.858 408.011 573.998 410.093C573.142 412.175 572.719 414.421 572.719 416.832C572.719 419.242 573.142 421.488 573.998 423.57C574.858 425.652 576.064 427.478 577.596 429.012C579.132 430.546 580.975 431.751 583.094 432.628C585.214 433.505 587.548 433.943 590.071 433.943C595.166 433.943 600.422 432.153 605.829 428.611V435.842Z" fill="white"/>
<path d="M625.24 394.324H618.939V439.248H625.24V394.324Z" fill="white"/>
<path d="M662.627 420.257L655.684 404.077L648.931 420.257H662.627ZM653.496 394.344H658.061L677.363 439.249H670.863L665.199 426.028H646.48L640.875 439.249H634.447L653.496 394.344Z" fill="white"/>
<path d="M686.541 394.344H692.789V433.46H713.695V439.249H686.541V394.344Z" fill="white"/>
<path d="M731.063 394.324H724.762V439.248H731.063V394.324Z" fill="white"/>
<path d="M744.12 427.29C746.055 429.519 747.902 431.18 749.691 432.258C751.461 433.335 753.455 433.865 755.642 433.865C757.835 433.865 759.551 433.354 760.791 432.313C762.036 431.29 762.658 429.884 762.658 428.076C762.658 427.163 762.493 426.341 762.182 425.611C761.851 424.88 761.394 424.205 760.757 423.547C760.135 422.889 759.367 422.232 758.472 421.593C757.577 420.972 756.522 420.26 755.317 419.457C753.469 418.233 751.845 417.119 750.421 416.114C748.996 415.11 747.829 414.088 746.876 413.047C745.928 412.024 745.233 410.91 744.762 409.705C744.285 408.499 744.047 407.075 744.047 405.449C744.047 403.824 744.358 402.162 744.98 400.683C745.598 399.222 746.478 397.962 747.611 396.903C748.739 395.862 750.11 395.022 751.719 394.401C753.323 393.798 755.098 393.488 757.033 393.488C760.373 393.488 763.699 394.511 767.005 396.575V403.879C765.196 402.382 763.48 401.249 761.851 400.483C760.227 399.715 758.53 399.332 756.775 399.332C754.714 399.332 753.085 399.843 751.879 400.848C750.678 401.852 750.076 403.13 750.076 404.664C750.076 405.541 750.275 406.345 750.678 407.075C751.077 407.787 751.661 408.499 752.409 409.175C753.158 409.851 754.072 410.545 755.151 411.239C756.226 411.951 757.417 412.718 758.749 413.54C760.339 414.544 761.764 415.53 763.057 416.48C764.336 417.411 765.415 418.452 766.271 419.566C767.131 420.68 767.787 421.922 768.264 423.31C768.736 424.698 768.974 426.323 768.974 428.204C768.974 429.884 768.663 431.436 768.045 432.879C767.423 434.321 766.548 435.581 765.415 436.622C764.282 437.682 762.911 438.521 761.287 439.124C759.678 439.745 757.908 440.056 755.973 440.056C753.654 440.056 751.554 439.727 749.633 439.069C747.718 438.394 745.875 437.298 744.066 435.764V427.29H744.12Z" fill="white"/>
<path d="M793.663 400.187H777.502V394.344H816.032V400.187H799.891V439.249H793.663V400.187Z" fill="white"/>
<path d="M844.215 420.257L837.272 404.077L830.514 420.257H844.215ZM835.084 394.344H839.649L858.951 439.249H852.451L846.787 426.028H828.068L822.482 439.249H816.055L835.099 394.344H835.084Z" fill="white"/>
</svg>
